<?xml version="1.0" encoding="utf-8"?>
<!-- Generator: Adobe Illustrator 19.0.0, SVG Export Plug-In . SVG Version: 6.00 Build 0)  -->
<svg
		version="1.1"
		id="Layer_1"
		xmlns="http://www.w3.org/2000/svg"
		xmlns:xlink="http://www.w3.org/1999/xlink"
		viewBox="420 330 700 380"
		width="177" height="24"
		style="display:block; margin:0 auto;"
		xml:space="preserve"
>
<style type="text/css">
	.st0{fill:#F7941E;}
	.st1{fill:#1C75BC;}
</style>
<g id="XMLID_3_">
	<path id="XMLID_18_" class="st0" d="M1034.3,548.2v101.5h-16.6l-1.2-9.9c-5.5,8.6-14.4,11.5-23.1,11.5c-21.1,0-36.9-13.9-36.9-37.5
		c0-24.7,15.5-37.5,36.4-37.5c7.6,0,19.3,4.1,23.5,11.5v-39.6H1034.3z M974.3,613.8c0,12.5,9,21.1,20.3,21.1
		c11.2,0,20.8-8.1,20.8-21.1c0-12.5-9.6-20.9-20.8-20.9C983.3,592.9,974.3,600.9,974.3,613.8z"/>
	<g id="XMLID_173_">
		<rect id="XMLID_176_" x="801.8" y="680.8" class="st0" width="21" height="23.9"/>
		<rect id="XMLID_175_" x="849.5" y="680.8" class="st0" width="22.5" height="23.9"/>
		<rect id="XMLID_174_" x="895.1" y="680.8" class="st0" width="20.3" height="23.9"/>
	</g>
	<rect id="XMLID_172_" x="750.4" y="445.5" class="st1" width="40.7" height="40.7"/>
	<rect id="XMLID_171_" x="686.8" y="480.3" class="st1" width="25.4" height="25.4"/>
	<rect id="XMLID_170_" x="632.5" y="443" class="st1" width="27.1" height="27.1"/>
	<rect id="XMLID_169_" x="708" y="409.9" class="st1" width="27.1" height="27.1"/>
	<rect id="XMLID_168_" x="661.4" y="395.5" class="st1" width="28.8" height="28.8"/>
	<rect id="XMLID_167_" x="679.2" y="347.1" class="st1" width="22.1" height="22.1"/>
	<path id="XMLID_164_" class="st1" d="M559.1,599.5c-0.3,26.3-16.4,52.6-52.1,52.6s-52.3-25.7-52.3-52.4c0-26.7,17.1-53.6,52.3-53.6
		C542,546,559.4,572.9,559.1,599.5z M473.6,599.9c0.4,16.7,9.4,34.6,33.4,34.6s33-18,33.3-34.7c0.3-17.1-9.3-36.3-33.3-36.3
		S473.2,582.8,473.6,599.9z"/>
	<path id="XMLID_162_" class="st1" d="M624.6,649.7v-37.5c0-10.9-6-19.2-17.3-19.2c-10.9,0-18.3,9.1-18.3,20v36.6h-17.6V578h15.8
		l1.2,9.7c7.3-7.1,14.5-10.7,23.5-10.7c16.8,0,30.4,12.6,30.4,35.1v37.6H624.6z"/>
	<path id="XMLID_160_" class="st0" d="M748.5,636.9c-10.5,10.3-24,15.1-38.6,15.1c-37.8,0-53.7-26-53.9-52.4
		c-0.1-26.6,17.1-53.6,53.9-53.6c13.8,0,26.9,5.2,37.3,15.5l-12.8,12.3c-6.7-6.5-15.7-9.6-24.5-9.6c-24.5,0-35.1,18.3-35,35.3
		c0.1,16.8,9.9,34.4,35,34.4c8.9,0,18.9-3.6,25.6-10.3L748.5,636.9z"/>
	<path id="XMLID_158_" class="st0" d="M774,548.2v101.5h-17.6V548.2H774z"/>
	<path id="XMLID_155_" class="st0" d="M860.7,614c0,20.6-14.1,37.3-37.3,37.3c-23.2,0-37.2-16.7-37.2-37.3c0-20.5,14.2-37.3,37-37.3
		C846.1,576.7,860.7,593.5,860.7,614z M804,614c0,10.9,6.5,21.1,19.5,21.1s19.5-10.2,19.5-21.1c0-10.7-7.6-21.2-19.5-21.2
		C810.6,592.8,804,603.2,804,614z"/>
	<path id="XMLID_153_" class="st0" d="M891.1,578.1v37.5c0,10.9,6,19.2,17.3,19.2c10.9,0,18.3-9.1,18.3-20v-36.6h17.6v71.7h-15.8
		l-1.2-9.7c-7.4,7.3-14.2,10.7-24.3,10.7c-17.1,0-29.6-12.9-29.6-35.1v-37.6H891.1z"/>
	<path id="XMLID_25_" class="st1" d="M992.1,448.8c-35-26.1-80.4-24-99-21.8c-10.5-38.5-30.1-65.3-58.5-79.7
		c-42.7-21.8-91.8-8.7-109.7-2.6v18.9c0.6-0.2,57-23.4,101.7-0.5c25.3,13,42.5,38.5,51.2,75.9l2,8.4l8.4-1.7
		c0.6-0.1,55.7-10.8,93.3,17.4c19.7,14.8,31.4,38,34.9,68.9h17.8C1030.6,495,1016.4,467,992.1,448.8z"/>
	<path id="XMLID_143_" class="st1" d="M523,683.9c-5.3,0-10.7-0.5-15.9-1.6c-30.3-6.4-53.2-20.3-68.1-41.5
		c-12.3-17.5-14.4-33.7-14.4-33.8l0-0.3c-4-28.1,1.3-52,15.8-71.3c28.8-38.2,84.7-46.3,85.3-46.4l6.2-0.8l1.3-6.1
		c6.6-31,26.1-52.3,58-63.2c24.8-8.5,48.1-7.3,48.4-7.3v-17.7c-5.1-0.2-28.3-0.4-53.5,8c-36,12.1-59.7,36.4-68.8,70.6
		c-16.7,3.3-63.3,15.6-90.9,52.1c-17.5,23.2-24,51.6-19.3,84.5c0.3,2.1,2.9,20.8,16.9,41c13.2,19.2,39.6,43.7,89.9,51.4l0.7,0.1h263
		v-17.7H523z"/>
</g>
</svg>
